<svg width="240" height="72" viewBox="0 0 240 72" fill="none" xmlns="http://www.w3.org/2000/svg" role="img" aria-labelledby="title desc">
<title id="title">Logo MEGA Poliuretanos</title>
<desc id="desc">Marca com símbolo industrial em azul e laranja e o texto MEGA PU.</desc>
<defs>
  <linearGradient id="bg" x1="12" y1="8" x2="60" y2="64" gradientUnits="userSpaceOnUse">
    <stop stop-color="#0B4FA8"/>
    <stop offset="1" stop-color="#003F85"/>
  </linearGradient>
  <radialGradient id="glow" cx="0" cy="0" r="1" gradientUnits="userSpaceOnUse" gradientTransform="translate(42 18) rotate(45) scale(40 26)">
    <stop stop-color="#7FB2FF" stop-opacity="0.8"/>
    <stop offset="1" stop-color="#7FB2FF" stop-opacity="0"/>
  </radialGradient>
  <linearGradient id="accent" x1="0" y1="0" x2="80" y2="40" gradientUnits="userSpaceOnUse">
    <stop stop-color="#FCA311"/>
    <stop offset="1" stop-color="#FFBF4D"/>
  </linearGradient>
  <linearGradient id="pipe" x1="0" y1="0" x2="1" y2="1">
    <stop stop-color="#E5ECF5"/>
    <stop offset="1" stop-color="#C7D6E8"/>
  </linearGradient>
</defs>
<rect x="6" y="4" width="64" height="64" rx="16" fill="url(#bg)"/>
<rect x="6" y="4" width="64" height="64" rx="16" fill="url(#glow)"/>
<path d="M24 50C24 42 30.5 36 38.5 36H54.5C58 36 60 33.5 60 30C60 25.5 57.5 23 52.5 23H44.5C36.5 23 30 17.5 30 10" stroke="url(#pipe)" stroke-width="6" stroke-linecap="round"/>
<circle cx="54" cy="30" r="7" fill="url(#accent)"/>
<circle cx="28" cy="50" r="7" fill="#FCA311"/>
<rect x="18" y="18" width="32" height="6" rx="3" fill="#B7CEEE" opacity="0.9"/>
<rect x="18" y="28" width="20" height="6" rx="3" fill="#D9E6F7" opacity="0.95"/>
<path d="M20 44H40" stroke="#EFF4FB" stroke-width="4" stroke-linecap="round"/>
<text x="86" y="42" fill="#0F2E67" font-family="Inter, Arial, sans-serif" font-weight="800" font-size="26">MEGA PU</text>
<rect x="86" y="48" width="92" height="6" rx="3" fill="#7FB2FF" opacity="0.35"/>
</svg>
