<svg width="1200" height="640" viewBox="0 0 1200 640" fill="none" xmlns="http://www.w3.org/2000/svg" role="img" aria-labelledby="title desc">
<title id="title">Ambiente industrial com destaque para poliuretano</title>
<desc id="desc">Visual ilustra linhas de produção em poliuretano com esteiras, tanques e peças técnicas.</desc>
<defs>
  <linearGradient id="bg" x1="1200" y1="0" x2="0" y2="640" gradientUnits="userSpaceOnUse">
    <stop stop-color="#f0f4fb"/>
    <stop offset="1" stop-color="#e6ecf5"/>
  </linearGradient>
  <radialGradient id="glow" cx="0" cy="0" r="1" gradientUnits="userSpaceOnUse" gradientTransform="translate(380 180) rotate(35) scale(360 260)">
    <stop stop-color="#7fb2ff" stop-opacity="0.45"/>
    <stop offset="1" stop-color="#7fb2ff" stop-opacity="0"/>
  </radialGradient>
  <linearGradient id="panel" x1="180" y1="120" x2="1000" y2="520" gradientUnits="userSpaceOnUse">
    <stop stop-color="#ffffff" stop-opacity="0.92"/>
    <stop offset="1" stop-color="#f4f7fb"/>
  </linearGradient>
  <linearGradient id="accent" x1="0" y1="0" x2="220" y2="220" gradientUnits="userSpaceOnUse">
    <stop stop-color="#0056b3"/>
    <stop offset="1" stop-color="#0c2a53"/>
  </linearGradient>
  <linearGradient id="pipe" x1="0" y1="0" x2="1" y2="1">
    <stop stop-color="#1e293b"/>
    <stop offset="1" stop-color="#0f172a"/>
  </linearGradient>
  <filter id="shadow" x="-20%" y="-20%" width="140%" height="140%" color-interpolation-filters="sRGB">
    <feDropShadow dx="0" dy="15" stdDeviation="22" flood-color="#0f172a" flood-opacity="0.12"/>
  </filter>
</defs>
<rect width="1200" height="640" rx="32" fill="url(#bg)"/>
<rect x="38" y="36" width="1124" height="568" rx="28" fill="url(#panel)" filter="url(#shadow)" />
<rect x="80" y="90" width="1040" height="460" rx="22" fill="#ffffff" stroke="#dbe3f0" stroke-width="2"/>
<rect x="80" y="90" width="1040" height="460" rx="22" fill="url(#glow)"/>

<rect x="140" y="150" width="280" height="80" rx="18" fill="#e8f1ff" stroke="#bed7ff" stroke-width="2"/>
<text x="170" y="198" fill="#0f172a" font-family="Inter, Arial, sans-serif" font-weight="700" font-size="20">Peças técnicas em PU</text>
<circle cx="180" cy="190" r="10" fill="#0056b3"/>

<rect x="480" y="130" width="540" height="120" rx="18" fill="#f4f7fb" stroke="#d5deeb" stroke-width="2"/>
<text x="510" y="176" fill="#0f172a" font-family="Inter, Arial, sans-serif" font-weight="700" font-size="18">Linha de revestimento</text>
<text x="510" y="205" fill="#334155" font-family="Inter, Arial, sans-serif" font-weight="500" font-size="16">+ Poliuretano para correias, cilindros e roletes</text>

<path d="M200 290H460C480 290 488 300 500 320C520 352 544 360 584 360H860C894 360 908 370 922 392C938 418 956 428 988 428H1040" stroke="url(#pipe)" stroke-width="18" stroke-linecap="round" stroke-linejoin="round"/>
<path d="M220 306H452" stroke="#94a3b8" stroke-width="4" stroke-linecap="round"/>
<path d="M600 344H820" stroke="#94a3b8" stroke-width="4" stroke-linecap="round"/>
<rect x="436" y="270" width="28" height="40" rx="6" fill="#0f172a"/>
<rect x="814" y="338" width="28" height="44" rx="6" fill="#0f172a"/>
<rect x="980" y="402" width="28" height="44" rx="6" fill="#0f172a"/>

<rect x="230" y="362" width="160" height="120" rx="16" fill="#0f172a"/>
<rect x="245" y="378" width="130" height="88" rx="12" fill="url(#accent)"/>
<rect x="258" y="392" width="104" height="16" rx="8" fill="#fca311" opacity="0.85"/>
<rect x="258" y="416" width="86" height="14" rx="7" fill="#bed7ff" opacity="0.9"/>
<rect x="258" y="438" width="72" height="10" rx="5" fill="#7fb2ff" opacity="0.85"/>

<g opacity="0.9">
  <rect x="520" y="392" width="152" height="88" rx="16" fill="#e2e8f0"/>
  <rect x="536" y="410" width="120" height="12" rx="6" fill="#0f172a" opacity="0.9"/>
  <rect x="536" y="434" width="96" height="10" rx="5" fill="#64748b"/>
  <rect x="536" y="454" width="78" height="8" rx="4" fill="#cbd5e1"/>
</g>

<circle cx="910" cy="230" r="56" fill="#e0edff" stroke="#bed7ff" stroke-width="2"/>
<path d="M906 186C906 184.343 907.343 183 909 183H924C925.657 183 927 184.343 927 186V205C927 206.657 925.657 208 924 208H909C907.343 208 906 206.657 906 205V186Z" fill="#0056b3"/>
<path d="M883 224C883 222.343 884.343 221 886 221H922C923.657 221 925 222.343 925 224V256C925 257.657 923.657 259 922 259H886C884.343 259 883 257.657 883 256V224Z" fill="#0f172a"/>
<circle cx="904" cy="240" r="9" fill="#fca311"/>
<path d="M904 214C904 212.343 905.343 211 907 211H918C919.657 211 921 212.343 921 214V220C921 221.657 919.657 223 918 223H907C905.343 223 904 221.657 904 220V214Z" fill="#0f172a"/>

<path d="M360 238C360 214.909 378.909 196 402 196H470C493.091 196 512 214.909 512 238C512 261.091 493.091 280 470 280H402C378.909 280 360 261.091 360 238Z" fill="#fca311" opacity="0.92"/>
<path d="M388 238C388 230.82 393.82 225 401 225H467C474.18 225 480 230.82 480 238C480 245.18 474.18 251 467 251H401C393.82 251 388 245.18 388 238Z" fill="#0f172a" opacity="0.9"/>
<circle cx="410" cy="238" r="8" fill="#ffffff"/>
<circle cx="454" cy="238" r="8" fill="#ffffff"/>
<path d="M430 238H438" stroke="#ffffff" stroke-width="6" stroke-linecap="round"/>

<rect x="710" y="420" width="220" height="44" rx="12" fill="#0056b3" opacity="0.9"/>
<circle cx="736" cy="442" r="10" fill="#fca311"/>
<rect x="758" y="436" width="148" height="12" rx="6" fill="#e5ecf5"/>

<g opacity="0.88">
  <circle cx="196" cy="320" r="40" fill="#0056b3" opacity="0.16"/>
  <circle cx="1000" cy="330" r="38" fill="#0f172a" opacity="0.08"/>
  <circle cx="104" cy="180" r="26" fill="#0f172a" opacity="0.05"/>
  <circle cx="1090" cy="180" r="24" fill="#0056b3" opacity="0.08"/>
</g>

<g transform="translate(160 460)">
  <text x="0" y="0" fill="#0f172a" font-family="Inter, Arial, sans-serif" font-weight="700" font-size="16">Alta resistência</text>
  <rect x="0" y="12" width="120" height="8" rx="4" fill="#0056b3" opacity="0.7"/>
  <text x="160" y="0" fill="#0f172a" font-family="Inter, Arial, sans-serif" font-weight="700" font-size="16">Precisão dimensional</text>
  <rect x="160" y="12" width="146" height="8" rx="4" fill="#fca311" opacity="0.8"/>
  <text x="360" y="0" fill="#0f172a" font-family="Inter, Arial, sans-serif" font-weight="700" font-size="16">Menos paradas</text>
  <rect x="360" y="12" width="120" height="8" rx="4" fill="#7fb2ff" opacity="0.85"/>
</g>
</svg>
